<?xml version="1.0" standalone="no"?>
<!DOCTYPE svg PUBLIC "-//W3C//DTD SVG 20010904//EN"
 "http://www.w3.org/TR/2001/REC-SVG-20010904/DTD/svg10.dtd">
<svg version="1.0" xmlns="http://www.w3.org/2000/svg"
 width="100.000000pt" height="100.000000pt" viewBox="0 0 100.000000 100.000000"
 preserveAspectRatio="xMidYMid meet">

<g transform="translate(0.000000,100.000000) scale(0.100000,-0.100000)"
fill="#000000" stroke="none">
<path d="M636 819 c-17 -13 -34 -18 -48 -14 -21 5 -21 5 2 -9 23 -13 26 -12
47 10 12 13 27 24 33 24 23 0 48 -20 54 -44 4 -17 11 -23 21 -20 8 4 22 0 31
-7 9 -7 26 -18 38 -24 25 -13 33 -50 14 -73 -12 -15 -11 -16 5 -3 31 25 12 91
-27 91 -8 0 -19 7 -26 15 -7 8 -21 15 -31 15 -11 0 -19 6 -19 14 0 16 -37 46
-56 46 -6 0 -23 -9 -38 -21z"/>
<path d="M539 783 c-13 -16 -12 -17 4 -4 9 7 17 15 17 17 0 8 -8 3 -21 -13z"/>
<path d="M508 740 c-26 -24 -22 -35 4 -10 12 11 20 22 17 24 -2 2 -12 -4 -21
-14z"/>
<path d="M596 699 c-14 -11 -26 -27 -26 -35 0 -19 -44 -18 -64 2 -9 8 -16 11
-16 5 0 -14 33 -31 59 -31 18 0 19 -3 9 -25 -10 -23 -16 -25 -80 -25 -60 0
-68 2 -68 19 0 37 -32 59 -89 63 -37 2 -55 -1 -58 -9 -3 -8 4 -13 16 -13 13 0
25 -9 30 -22 11 -31 35 -198 32 -225 -2 -16 3 -23 14 -23 9 0 16 -7 14 -17 -3
-37 1 -44 23 -41 32 4 37 38 6 39 -48 1 15 18 71 18 47 1 52 -1 46 -16 -23
-56 -29 -53 124 -53 116 0 141 3 141 14 0 21 -25 43 -65 56 -41 13 -43 24 -13
59 21 24 21 24 -8 -1 -38 -35 -66 -35 -104 -1 -25 22 -30 33 -27 62 5 45 41
57 56 19 6 -13 10 -17 10 -10 1 7 5 11 10 8 5 -3 11 1 15 9 3 8 17 15 31 15
23 0 26 -4 23 -27 -4 -30 17 -43 26 -15 6 18 -5 91 -19 124 -6 14 1 17 47 21
l53 3 -57 2 c-43 2 -58 6 -58 16 0 16 -46 56 -65 56 -7 0 -24 -9 -39 -21z
m-219 -47 c7 -4 14 -19 15 -32 3 -21 -2 -25 -27 -28 -27 -3 -31 1 -41 33 -11
34 -10 35 15 35 14 0 32 -4 38 -8z m323 -87 c11 -13 8 -15 -18 -15 -17 0 -32
-6 -35 -12 -4 -10 -7 -10 -18 0 -7 6 -23 12 -36 12 -23 0 -30 10 -16 23 13 14
110 7 123 -8z m-265 -2 c-54 -7 -62 -16 -20 -23 38 -7 37 -7 -17 -9 -52 -1
-58 1 -58 19 0 18 6 20 63 19 34 -1 49 -4 32 -6z m35 -53 c0 -6 -27 -10 -60
-10 -33 0 -60 4 -60 10 0 6 27 10 60 10 33 0 60 -4 60 -10z m30 0 c0 -5 -5
-10 -11 -10 -5 0 -7 5 -4 10 3 6 8 10 11 10 2 0 4 -4 4 -10z m221 -13 c-10 -9
-11 -8 -5 6 3 10 9 15 12 12 3 -3 0 -11 -7 -18z m-251 -17 c0 -6 -27 -10 -60
-10 -33 0 -60 4 -60 10 0 6 27 10 60 10 33 0 60 -4 60 -10z m62 -22 c-7 -7
-10 -5 -7 8 5 29 6 30 12 16 3 -8 1 -18 -5 -24z m-77 -9 c-56 -11 -95 -11 -95
1 0 6 28 10 68 9 62 -1 64 -2 27 -10z m143 -41 c3 -16 -8 -18 -122 -18 -73 0
-126 4 -126 10 0 22 41 30 140 27 91 -2 105 -4 108 -19z m72 -17 c0 -5 12 -12
28 -16 34 -8 72 -32 72 -45 0 -6 -52 -10 -131 -10 -147 0 -157 7 -73 52 48 26
104 36 104 19z"/>
<path d="M350 550 c0 -5 5 -10 10 -10 6 0 10 5 10 10 0 6 -4 10 -10 10 -5 0
-10 -4 -10 -10z"/>
<path d="M590 520 c0 -5 5 -10 10 -10 6 0 10 5 10 10 0 6 -4 10 -10 10 -5 0
-10 -4 -10 -10z"/>
<path d="M670 520 c0 -5 5 -10 10 -10 6 0 10 5 10 10 0 6 -4 10 -10 10 -5 0
-10 -4 -10 -10z"/>
<path d="M625 431 c13 -14 17 -14 30 0 14 14 13 16 -15 16 -28 0 -29 -2 -15
-16z"/>
<path d="M206 341 c-3 -4 6 -6 19 -3 14 2 33 -2 42 -9 9 -8 27 -14 41 -14 14
0 29 -8 36 -20 6 -11 18 -25 26 -32 21 -17 2 -46 -36 -54 l-29 -7 27 -1 c26
-1 58 21 58 40 0 11 -40 70 -55 82 -5 4 -20 5 -31 2 -14 -3 -24 1 -28 10 -6
16 -61 21 -70 6z"/>
<path d="M155 299 c-22 -12 -44 -25 -49 -29 -12 -11 1 -60 16 -60 9 0 9 3 0
12 -7 7 -12 19 -12 28 0 16 51 50 76 50 8 0 14 5 14 10 0 13 1 13 -45 -11z"/>
</g>
</svg>
